<svg xmlns="http://www.w3.org/2000/svg" viewBox="0 0 120 120" fill="none">
  <!-- Glencairn glass - elegant silhouette -->
  <path d="M42 20 Q38 20 37 24 L32 65 Q30 80 38 88 L42 92 L42 104 L36 104 L36 108 L84 108 L84 104 L78 104 L78 92 L82 88 Q90 80 88 65 L83 24 Q82 20 78 20 Z" fill="#1a1a1a" opacity="0.08" />
  <path d="M42 20 Q38 20 37 24 L32 65 Q30 80 38 88 L42 92 L42 104 L36 104 L36 108 L84 108 L84 104 L78 104 L78 92 L82 88 Q90 80 88 65 L83 24 Q82 20 78 20 Z" fill="none" stroke="#1a1a1a" stroke-width="1.5" />
  <!-- Liquid level -->
  <path d="M35 58 L33 65 Q30 80 38 88 L42 92 L78 92 L82 88 Q90 80 87 65 L85 58 Z" fill="#b45309" opacity="0.25" />
</svg>
